<?xml version="1.0" standalone="no"?><!DOCTYPE svg PUBLIC "-//W3C//DTD SVG 1.1//EN" "http://www.w3.org/Graphics/SVG/1.1/DTD/svg11.dtd"><svg t="1540642213102" class="icon" style="" viewBox="0 0 2037 1024" version="1.1" xmlns="http://www.w3.org/2000/svg" p-id="11477" xmlns:xlink="http://www.w3.org/1999/xlink" width="397.8515625" height="200"><defs><style type="text/css"></style></defs><path d="M26.933193 0h1982.283009c15.082588 0 26.933193 11.850605 26.933193 26.933193v969.59495c0 15.082588-11.850605 26.933193-26.933193 26.933193H26.933193c-15.082588 0-26.933193-11.850605-26.933193-26.933193V26.933193c0-15.082588 11.850605-26.933193 26.933193-26.933193z" fill="#FFFFFF" p-id="11478"></path><path d="M1987.669648 716.422935c0-29.087849-3.770647-57.098369-10.234614-83.492898-10.773277 1.615992-21.546554 2.693319-32.858495 2.693319-107.194108 0-193.91899-86.724882-193.91899-193.91899 0-16.159916 2.154655-31.781168 5.925302-46.863756-33.935823-11.311941-70.026302-17.775907-108.271436-17.775907-187.455024 0-339.358233 151.903209-339.358232 339.358232 0 136.281957 80.260915 253.710679 196.073645 307.577065h286.03051c116.351394-53.866386 196.612309-171.295108 196.61231-307.577065z" fill="#F2F6F7" p-id="11479"></path><path d="M503.65071 247.785376C615.154129 247.785376 705.649658 157.289847 705.649658 45.786428c0-15.621252-1.615992-30.70384-5.386639-45.247764H307.038401c-3.231983 14.543924-5.386639 29.626512-5.386639 45.247764C301.651762 157.289847 392.147291 247.785376 503.65071 247.785376z" fill="#F2F7F5" p-id="11480"></path><path d="M1944.576539 247.785376c-91.034193 0-166.985797 62.485008-187.993688 147.055234 108.271436 36.629143 192.302998 126.047344 220.852183 238.089427 21.007891-3.770647 40.938453-10.234613 58.714361-19.930563V270.947922c-27.471857-15.082588-58.714361-23.162546-91.572856-23.162546z" fill="#F1F4EB" p-id="11481"></path><path d="M1944.576539 635.623356c11.311941 0 22.085218-1.077328 32.858495-2.693319-28.549185-112.042083-112.580747-201.460284-220.852183-238.089427-3.770647 15.082588-5.925302 30.70384-5.925302 46.863756 0 107.194108 86.724882 193.91899 193.91899 193.91899z" fill="#ECF2E9" p-id="11482"></path><path d="M296.265124 721.809574c-107.194108 0-193.91899 86.724882-193.91899 193.91899 0 40.39979 12.389269 77.567596 32.858495 108.271436h321.582325c21.007891-30.70384 32.858496-68.41031 32.858496-108.271436 0.538664-107.194108-86.186218-193.91899-193.380326-193.91899z" fill="#F7F6F9" p-id="11483"></path></svg>