<?xml version="1.0" standalone="no"?><!DOCTYPE svg PUBLIC "-//W3C//DTD SVG 1.1//EN" "http://www.w3.org/Graphics/SVG/1.1/DTD/svg11.dtd"><svg t="1540641850042" class="icon" style="" viewBox="0 0 2037 1024" version="1.1" xmlns="http://www.w3.org/2000/svg" p-id="11364" xmlns:xlink="http://www.w3.org/1999/xlink" width="397.8515625" height="200"><defs><style type="text/css"></style></defs><path d="M26.947368 0h1983.326316c15.090526 0 26.947368 11.856842 26.947369 26.947368v970.105264c0 15.090526-11.856842 26.947368-26.947369 26.947368H26.947368c-15.090526 0-26.947368-11.856842-26.947368-26.947368V26.947368c0-15.090526 11.856842-26.947368 26.947368-26.947368z" fill="#FFFFFF" p-id="11365"></path><path d="M813.810526 180.008421c0-63.056842-10.778947-123.418947-30.181052-180.008421H26.947368C11.856842 0 0 11.856842 0 26.947368v639.730527c77.608421 42.037895 167.073684 65.751579 261.389474 65.751579C566.433684 732.429474 813.810526 485.052632 813.810526 180.008421z" fill="#ECF3F5" p-id="11366"></path><path d="M1978.475789 632.724211c-28.564211-112.101053-112.64-201.566316-220.968421-238.214737-33.953684-11.317895-70.063158-17.785263-108.328421-17.785263-187.553684 0-339.536842 151.983158-339.536842 339.536842 0 136.353684 80.303158 253.844211 196.176842 307.738947h286.181053c115.873684-53.894737 196.176842-171.385263 196.176842-307.738947 0.538947-29.103158-3.233684-57.128421-9.701053-83.536842z" fill="#F5F1F1" p-id="11367"></path><path d="M1945.6 247.376842c-91.082105 0-167.073684 62.517895-188.092632 147.132632-3.772632 15.090526-5.928421 30.72-5.928421 46.888421 0 107.250526 86.770526 194.021053 194.021053 194.021052 11.317895 0 22.096842-1.077895 32.875789-2.694736 21.018947-3.772632 40.96-10.24 58.745264-19.941053V270.012632c-27.486316-14.551579-58.745263-22.635789-91.621053-22.63579z" fill="#EFF3E7" p-id="11368"></path><path d="M1945.6 635.418947c11.317895 0 22.096842-1.077895 32.875789-2.694736-28.564211-112.101053-112.64-201.566316-220.968421-238.214737-3.772632 15.090526-5.928421 30.72-5.928421 46.888421 0 107.250526 86.770526 194.021053 194.021053 194.021052z" fill="#ECEEE2" p-id="11369"></path></svg>