<?xml version="1.0" standalone="no"?><!DOCTYPE svg PUBLIC "-//W3C//DTD SVG 1.1//EN" "http://www.w3.org/Graphics/SVG/1.1/DTD/svg11.dtd"><svg t="1540642260089" class="icon" style="" viewBox="0 0 2038 1024" version="1.1" xmlns="http://www.w3.org/2000/svg" p-id="11591" xmlns:xlink="http://www.w3.org/1999/xlink" width="398.046875" height="200"><defs><style type="text/css"></style></defs><path d="M26.904887 0h1980.199685c15.066737 0 26.904887 11.83815 26.904887 26.904887v968.575933c0 15.066737-11.83815 26.904887-26.904887 26.904887H26.904887c-15.066737 0-26.904887-11.83815-26.904887-26.904887V26.904887c0-15.066737 11.83815-26.904887 26.904887-26.904887z" fill="#FFFFFF" p-id="11592"></path><path d="M1303.810825 533.792958c-187.258014 0-339.001576 151.743563-339.001576 339.001577 0 54.347872 12.914346 106.005255 35.51445 151.205465h606.436154c22.600105-45.738308 35.514451-96.857593 35.514451-151.205465 0.538098-186.719916-151.205465-339.001576-338.463479-339.001577z" fill="#F3F7F3" p-id="11593"></path><path d="M814.141881 181.338939c0-62.957436-10.761955-123.224383-30.133473-179.724646H28.51918c-15.066737 0-26.904887 11.83815-26.904887 26.904887V667.241198c77.486075 41.971624 166.8103 65.647924 260.977404 65.647924 304.563321 0 551.550184-246.448765 551.550184-551.550183z" fill="#F3F6F7" p-id="11594"></path><path d="M1944.147136 248.601156c-107.08145 0-193.715187 86.633736-193.715186 193.715187s86.633736 193.715187 193.715186 193.715186c32.823962 0 64.033631-8.071466 91.476616-23.138203V271.739359c-26.904887-14.528639-58.114556-23.138203-91.476616-23.138203z" fill="#F2F5EC" p-id="11595"></path></svg>